<svg xmlns="http://www.w3.org/2000/svg" aria-hidden="true" style="position:absolute;width:0;height:0;overflow:hidden">
  <defs>
    <symbol id="icon-logo" viewBox="0 0 32 32">
      <path d="M13.653 12.874a2.154 2.154 0 1 0-4.287.42 2.154 2.154 0 0 0 4.287-.42zm-1.606-1.436c.026 0 .046.005.07.012l.005.001c.01.048 0 .07-.025.111-.044.072-.093.14-.142.209-.086.121-.173.242-.232.38-.128.299-.098.647-.068.999.026.308.053.619-.026.902-.095.34-.333.563-.632.729-.017.003-.035.001-.052 0l-.011-.001h-.007l-.003-.005c-.017-.032-.018-.034-.006-.071.016-.048.048-.097.078-.143l.033-.051c.104-.173.205-.36.237-.561.04-.252.019-.511-.003-.77-.027-.329-.054-.658.044-.972.12-.386.401-.587.739-.767zM18.724 19.131a2.1 2.1 0 1 0-4.171.488 2.1 2.1 0 0 0 4.171-.488zm-2.325-1.359a1.11 1.11 0 0 1 .764.214c.364.27.549.717.61 1.154.065.462.059 1.103-.242 1.489-.164.211-.372.296-.629.328a1.142 1.142 0 0 1-.771-.206c-.354-.255-.535-.674-.601-1.094-.075-.478-.072-1.148.238-1.551.165-.215.371-.3.631-.334zM6.764 9.209a3.215 3.215 0 0 1 1.16.081c.221.056.442.132.668.163.13.018.266.017.397.019.021.364.091 1.235.049 1.556a.528.528 0 0 1-.186 0c-.069-.08-.101-.258-.143-.361a1.496 1.496 0 0 0-.829-.825c-.472-.194-1.036-.169-1.501.032a2.067 2.067 0 0 0-1.081 1.128c-.301.767-.298 1.75.039 2.504.234.523.649.983 1.193 1.187.519.195 1.083.137 1.581-.091.222-.113.427-.282.559-.495.075-.121.13-.35.248-.428l.033.013c.127.161.175.664.217.881a3.182 3.182 0 0 1-1.693.786c-.832.109-1.7-.059-2.372-.577-.612-.472-.984-1.214-1.075-1.974-.107-.884.088-1.775.647-2.478.515-.648 1.273-1.027 2.089-1.12zM22.387 11.308a2.11 2.11 0 0 0-.721-.057c-.533.052-.988.258-1.335.676a2.283 2.283 0 0 0-.507 1.671c.053.513.289 1.024.699 1.349.43.341 1.038.438 1.572.374.474-.056.894-.261 1.188-.643.135-.175.232-.373.309-.578l-.028-.027a.382.382 0 0 0-.153-.109.196.196 0 0 0-.014.006.07.07 0 0 0-.041.034c-.254.373-.544.62-.998.705a1.297 1.297 0 0 1-1.002-.203 1.554 1.554 0 0 1-.531-.676c.543-.322 1.132-.647 1.757-.775.124-.025.25-.04.375-.054.132-.015.264-.03.392-.057.086-.019.147-.036.177-.127.073-.228-.042-.601-.157-.798-.21-.36-.58-.61-.98-.709zm-.552.363c.101.001.21.008.308.035a.62.62 0 0 1 .396.298c.056.107.099.279.055.396a.446.446 0 0 1-.204.218c-.11.065-.241.106-.368.147l-.127.041a5.82 5.82 0 0 0-.651.262c-.048.021-.109.06-.174.101-.122.077-.258.163-.35.162-.049-.041-.062-.075-.067-.137-.034-.41.131-.877.397-1.188.194-.227.5-.311.786-.334zM26.377 11.269a2.368 2.368 0 0 0-.476-.018c-.541.044-.998.241-1.352.662a2.277 2.277 0 0 0-.519 1.673c.048.501.281 1.013.676 1.334.424.346 1.058.465 1.593.404a1.753 1.753 0 0 0 1.2-.655 2.02 2.02 0 0 0 .317-.582l-.029-.026c-.05-.045-.108-.098-.17-.103-.255.383-.559.653-1.021.746-.348.07-.686.019-.985-.179a1.704 1.704 0 0 1-.576-.693 5.444 5.444 0 0 1 2.006-.834c.087-.016.174-.023.262-.03.073-.006.145-.011.217-.022.094-.014.189-.036.21-.143.059-.302-.06-.665-.238-.908-.269-.366-.672-.567-1.116-.628zm-.515.417c.182-.014.359-.023.534.041a.654.654 0 0 1 .377.347.438.438 0 0 1 .024.342.393.393 0 0 1-.129.162c-.132.097-.458.21-.742.31-.14.049-.27.094-.36.132a5.096 5.096 0 0 0-.427.223l-.234.129c-.066-.402-.025-.812.194-1.164.181-.291.436-.445.764-.52zM12.389 16.092c.43-.002 1.639-.056 1.965.03.027.037.025.038.021.085-.075.127-.236.178-.348.269a.404.404 0 0 0-.142.209c-.072.304-.044.655-.044.967l-.009 1.317c-.002.314.008.636-.029.948-.053.447-.25.862-.611 1.141-.45.347-1.079.424-1.629.35-.482-.065-.952-.274-1.252-.669-.272-.359-.341-.778-.283-1.216.015-.077.035-.152.062-.226.103-.273.303-.498.574-.614a1.23 1.23 0 0 1 .933-.008c.14.06.228.163.279.307.031.087.042.162.002.247-.116.109-.376-.037-.538.008a.546.546 0 0 0-.335.282 1.02 1.02 0 0 0-.038.791.897.897 0 0 0 .469.497c.251.116.603.145.865.047a.762.762 0 0 0 .434-.435 1.92 1.92 0 0 0 .12-.55c.037-.413.084-2.904-.007-3.174-.096-.284-.423-.293-.498-.466 0-.042.001-.071.021-.107l.016-.029zM21.279 20.708c.183-.454.342-.922.511-1.382.132-.358.295-.729.375-1.102a.488.488 0 0 0 .003-.237c-.068-.242-.38-.223-.451-.41.01-.041.004-.059.043-.084.072-.046 1.347-.051 1.503-.031.052.007.089.018.123.06.004.09-.018.131-.099.177-.13.073-.295.111-.392.231-.153.19-.729 1.813-.872 2.182l-.475 1.233c-.119.31-.232.646-.41.928-.108.17-.253.336-.429.437a1.148 1.148 0 0 1-.867.095.83.83 0 0 1-.528-.407.747.747 0 0 1-.043-.559.52.52 0 0 1 .278-.295c.082-.036.215-.068.3-.022.201.109.07.47.147.663.026.065.064.11.13.137.108.043.294-.016.391-.063.327-.16.465-.674.574-.992-.137.003-.296.019-.432-.004a.22.22 0 0 1-.066-.02.273.273 0 0 1-.097-.118c-.107-.208-.179-.45-.263-.67l-.52-1.367c-.102-.269-.195-.549-.32-.807-.094-.193-.218-.39-.411-.496-.096-.053-.221-.052-.286-.148a.3.3 0 0 1 .021-.167c.345-.014 1.73-.05 1.985.021a.278.278 0 0 1-.003.164c-.03.076-.177.099-.244.126-.073.029-.135.073-.164.149-.031.084.01.22.035.305.105.374.276.743.416 1.107.175.454.333.926.537 1.368zM18.84 9.549c.306-.016.596.023.863.183.195.117.36.293.409.52a.469.469 0 0 1-.053.362.574.574 0 0 1-.374.225c-.083.01-.181-.001-.247-.055-.155-.125-.083-.347-.112-.518a.315.315 0 0 0-.143-.219.606.606 0 0 0-.445-.063.42.42 0 0 0-.26.226c-.175.346-.078.798.03 1.147.367.009.736.002 1.103.001.001.156-.002.309-.014.464-.355 0-.71-.006-1.064.008-.023.364-.014.734-.016 1.1-.003.546-.057 1.15.068 1.682.019.049.04.096.066.142.111.201.178.179.375.244.067.022.106.049.135.112a.172.172 0 0 1-.042.115c-.017.011-.024.017-.047.022-.071.014-1.782.006-1.879-.01-.066-.011-.113-.026-.155-.082.028-.161.207-.15.315-.255a.843.843 0 0 0 .221-.446c.075-.361.046-.769.045-1.138l-.007-1.491-.7-.003c-.014-.154-.015-.309-.019-.464h.697a1.893 1.893 0 0 1-.083-.321c-.045-.322.03-.649.228-.91.263-.347.686-.524 1.108-.578z"/>
      <path d="M15.945 9.549c.282-.024.553-.003.806.135a.881.881 0 0 1 .437.519c.038.14.043.317-.037.445a.37.37 0 0 1-.253.162c-.094.018-.217.017-.296-.045-.148-.119-.049-.347-.082-.505a.353.353 0 0 0-.179-.221.642.642 0 0 0-.46-.038.416.416 0 0 0-.26.222c-.156.319-.038.807.069 1.124.351.021.711.005 1.063.006.009.157.001.311-.009.468-.358-.001-.716.001-1.073.004-.016.447-.023.895-.02 1.343-.001.461-.047.979.088 1.424.149.326.457.381.53.555-.011.032-.007.037-.038.056-.113.067-1.826.054-1.979.018-.006-.021-.014-.045-.014-.066-.005-.136.21-.193.292-.274.115-.113.171-.323.198-.479.06-.351.041-.737.04-1.092l-.003-1.484-.698-.003c-.011-.155-.01-.309-.01-.464.223.002.445.002.668-.001-.034-.113-.071-.227-.088-.345a1.177 1.177 0 0 1 .217-.895c.262-.349.671-.511 1.091-.569z"/>
    </symbol>
    <symbol id="icon-logo-footer" viewBox="0 0 55 32">
      <path d="M22.447 8.791c-0.267-2.735-2.705-4.733-5.439-4.458-2.724 0.274-4.713 2.7-4.446 5.425s2.687 4.72 5.413 4.461c2.735-0.26 4.74-2.692 4.472-5.427zM18.745 5.479c0.061-0 0.106 0.012 0.162 0.028l0.012 0.003c0.022 0.111-0 0.162-0.058 0.256-0.101 0.165-0.214 0.323-0.327 0.481-0.199 0.279-0.398 0.558-0.535 0.875-0.296 0.689-0.227 1.492-0.157 2.303 0.061 0.71 0.122 1.427-0.060 2.079-0.219 0.784-0.769 1.297-1.457 1.68-0.038 0.006-0.080 0.003-0.121 0-0.008-0.001-0.017-0.001-0.025-0.002-0.005-0-0.010-0.001-0.016-0.001l-0.007-0.013c-0.039-0.075-0.042-0.079-0.013-0.164 0.037-0.11 0.11-0.223 0.179-0.329 0.026-0.041 0.052-0.080 0.075-0.118 0.239-0.399 0.474-0.829 0.547-1.294 0.092-0.581 0.043-1.178-0.006-1.776-0.062-0.758-0.124-1.517 0.101-2.241 0.276-0.889 0.924-1.353 1.703-1.768z"></path>
      <path d="M34.14 23.22c-0.31-2.655-2.713-4.556-5.368-4.247-2.656 0.309-4.558 2.713-4.248 5.37s2.715 4.557 5.371 4.247c2.655-0.311 4.555-2.715 4.245-5.369zM28.78 20.086c0.642-0.048 1.243 0.109 1.761 0.494 0.838 0.623 1.266 1.654 1.408 2.662 0.15 1.064 0.135 2.543-0.558 3.434-0.378 0.486-0.857 0.683-1.449 0.756-0.631 0.061-1.263-0.108-1.779-0.476-0.815-0.588-1.234-1.555-1.386-2.523-0.173-1.103-0.167-2.647 0.548-3.578 0.38-0.495 0.855-0.692 1.455-0.769z"></path>
      <path d="M6.562 0.342c0.861-0.113 1.836-0.024 2.674 0.187 0.51 0.129 1.018 0.303 1.539 0.377 0.3 0.042 0.614 0.039 0.916 0.044 0.049 0.839 0.211 2.849 0.114 3.588-0.154 0.030-0.273 0.022-0.428 0-0.159-0.184-0.234-0.595-0.329-0.834-0.35-0.874-1.043-1.546-1.912-1.902-1.089-0.446-2.388-0.389-3.461 0.074-1.127 0.487-2.045 1.461-2.492 2.602-0.693 1.767-0.688 4.035 0.089 5.774 0.539 1.205 1.497 2.266 2.751 2.736 1.197 0.449 2.498 0.316 3.645-0.209 0.512-0.261 0.986-0.65 1.29-1.142 0.172-0.278 0.299-0.808 0.572-0.988l0.076 0.030c0.294 0.371 0.403 1.532 0.5 2.031-1.105 0.974-2.439 1.62-3.904 1.813-1.918 0.252-3.92-0.135-5.47-1.331-1.411-1.089-2.268-2.8-2.48-4.553-0.246-2.037 0.204-4.093 1.493-5.715 1.188-1.494 2.936-2.368 4.816-2.583z"></path>
      <path d="M42.586 5.181c-0.514-0.128-1.135-0.197-1.661-0.132-1.229 0.121-2.279 0.594-3.077 1.558-0.885 1.079-1.304 2.465-1.168 3.854 0.122 1.184 0.667 2.361 1.611 3.11 0.992 0.787 2.394 1.009 3.625 0.863 1.093-0.129 2.062-0.601 2.74-1.484 0.31-0.403 0.535-0.859 0.713-1.334-0.022-0.021-0.044-0.042-0.066-0.063-0.105-0.103-0.213-0.209-0.353-0.252-0.012 0.006-0.023 0.010-0.033 0.014-0.043 0.018-0.060 0.025-0.096 0.079-0.585 0.861-1.254 1.43-2.301 1.626-0.815 0.153-1.626 0.012-2.31-0.468-0.544-0.382-0.974-0.946-1.225-1.56 1.251-0.742 2.611-1.493 4.051-1.788 0.285-0.058 0.576-0.091 0.865-0.124 0.305-0.034 0.608-0.069 0.903-0.132 0.198-0.043 0.34-0.083 0.407-0.293 0.169-0.526-0.097-1.386-0.363-1.84-0.485-0.83-1.336-1.406-2.261-1.636zM41.313 6.018c0.234 0.001 0.485 0.018 0.71 0.080 0.381 0.105 0.726 0.331 0.912 0.688 0.128 0.247 0.229 0.643 0.128 0.913-0.085 0.227-0.268 0.382-0.471 0.502-0.253 0.149-0.557 0.245-0.849 0.338-0.099 0.031-0.197 0.063-0.292 0.095-0.511 0.176-1.014 0.369-1.501 0.604-0.111 0.050-0.252 0.138-0.402 0.233-0.281 0.178-0.595 0.376-0.808 0.372-0.113-0.095-0.142-0.174-0.154-0.317-0.079-0.946 0.302-2.023 0.914-2.739 0.448-0.524 1.152-0.717 1.813-0.771z"></path>
      <path d="M51.788 5.090c-0.363-0.050-0.731-0.064-1.098-0.041-1.247 0.102-2.301 0.556-3.117 1.527-0.898 1.075-1.328 2.464-1.197 3.858 0.11 1.155 0.649 2.336 1.559 3.077 0.979 0.798 2.44 1.072 3.672 0.932 1.097-0.124 2.082-0.639 2.767-1.51 0.315-0.404 0.562-0.857 0.73-1.341-0.021-0.018-0.043-0.039-0.066-0.060-0.114-0.104-0.248-0.226-0.391-0.238-0.587 0.884-1.29 1.506-2.354 1.72-0.802 0.162-1.581 0.044-2.27-0.413-0.591-0.392-1.021-0.964-1.327-1.597 1.353-0.92 3.017-1.625 4.625-1.923 0.2-0.037 0.402-0.053 0.605-0.068 0.168-0.013 0.335-0.026 0.501-0.051 0.216-0.033 0.435-0.082 0.483-0.329 0.136-0.696-0.138-1.533-0.549-2.093-0.62-0.844-1.549-1.307-2.572-1.449zM50.6 6.052c0.419-0.033 0.827-0.054 1.232 0.094 0.387 0.142 0.7 0.421 0.868 0.8 0.111 0.249 0.16 0.529 0.055 0.788-0.060 0.147-0.17 0.28-0.297 0.373-0.305 0.223-1.057 0.485-1.712 0.714-0.323 0.113-0.622 0.217-0.831 0.304-0.336 0.15-0.661 0.332-0.984 0.514-0.18 0.101-0.359 0.201-0.54 0.296-0.152-0.927-0.057-1.872 0.448-2.684 0.417-0.671 1.005-1.026 1.762-1.199z"></path>
      <path d="M19.531 16.212c0.992-0.006 3.78-0.129 4.532 0.069 0.063 0.086 0.057 0.088 0.049 0.195-0.174 0.293-0.545 0.411-0.802 0.621-0.149 0.121-0.283 0.293-0.327 0.483-0.166 0.7-0.101 1.51-0.101 2.229l-0.020 3.038c-0.005 0.725 0.017 1.466-0.068 2.186-0.122 1.031-0.576 1.989-1.409 2.63-1.038 0.8-2.487 0.979-3.756 0.806-1.111-0.15-2.195-0.632-2.886-1.544-0.627-0.827-0.786-1.793-0.653-2.805 0.035-0.179 0.080-0.351 0.144-0.522 0.236-0.63 0.699-1.148 1.323-1.416 0.659-0.282 1.49-0.303 2.152-0.018 0.322 0.138 0.525 0.377 0.644 0.707 0.072 0.202 0.096 0.374 0.004 0.57-0.267 0.252-0.868-0.086-1.241 0.019-0.344 0.096-0.608 0.338-0.773 0.651-0.286 0.543-0.293 1.253-0.088 1.824 0.182 0.509 0.596 0.92 1.082 1.146 0.578 0.267 1.39 0.334 1.994 0.109 0.468-0.174 0.811-0.546 1-1.003 0.163-0.394 0.239-0.846 0.277-1.268 0.086-0.951 0.193-6.697-0.016-7.319-0.221-0.656-0.975-0.675-1.148-1.074 0-0.096 0.002-0.163 0.049-0.248 0.012-0.023 0.025-0.044 0.038-0.066z"></path>
      <path d="M40.032 26.857c0.423-1.047 0.788-2.127 1.178-3.187 0.304-0.826 0.68-1.68 0.866-2.54 0.040-0.183 0.057-0.364 0.006-0.547-0.156-0.558-0.876-0.514-1.039-0.945 0.023-0.095 0.009-0.136 0.1-0.194 0.166-0.107 3.107-0.118 3.467-0.072 0.12 0.015 0.206 0.042 0.284 0.138 0.008 0.207-0.042 0.302-0.228 0.407-0.299 0.169-0.68 0.255-0.904 0.533-0.353 0.437-1.682 4.18-2.010 5.031l-1.096 2.844c-0.276 0.714-0.534 1.491-0.945 2.14-0.249 0.393-0.584 0.774-0.99 1.008-0.593 0.34-1.344 0.403-1.998 0.219-0.509-0.143-0.974-0.459-1.218-0.938-0.193-0.379-0.24-0.884-0.099-1.288 0.106-0.301 0.35-0.551 0.64-0.68 0.188-0.084 0.496-0.156 0.691-0.051 0.463 0.252 0.161 1.084 0.339 1.528 0.060 0.149 0.148 0.254 0.3 0.316 0.248 0.1 0.678-0.037 0.901-0.145 0.755-0.368 1.072-1.555 1.323-2.288-0.317 0.006-0.683 0.045-0.995-0.010-0.049-0.008-0.11-0.021-0.153-0.047-0.103-0.060-0.17-0.169-0.223-0.273-0.246-0.48-0.413-1.039-0.606-1.544l-1.198-3.153c-0.236-0.62-0.45-1.266-0.739-1.862-0.216-0.444-0.504-0.898-0.948-1.144-0.22-0.121-0.51-0.12-0.659-0.341-0.026-0.15 0.001-0.242 0.048-0.386 0.794-0.032 3.988-0.115 4.576 0.048 0.032 0.112 0.038 0.267-0.007 0.377-0.070 0.174-0.407 0.228-0.562 0.29-0.167 0.067-0.312 0.169-0.377 0.345-0.072 0.194 0.024 0.507 0.080 0.704 0.243 0.861 0.635 1.714 0.958 2.552 0.404 1.047 0.768 2.134 1.239 3.154z"></path>
      <path d="M34.408 1.124c0.705-0.037 1.375 0.053 1.991 0.423 0.45 0.269 0.831 0.675 0.944 1.2 0.062 0.285 0.042 0.586-0.123 0.834-0.18 0.269-0.544 0.478-0.863 0.518-0.192 0.024-0.417-0.002-0.571-0.126-0.357-0.288-0.191-0.801-0.258-1.195-0.037-0.212-0.147-0.391-0.331-0.506-0.278-0.174-0.712-0.232-1.027-0.144-0.275 0.076-0.474 0.271-0.601 0.522-0.404 0.797-0.18 1.839 0.069 2.645 0.846 0.021 1.696 0.004 2.543 0.003 0.002 0.359-0.004 0.712-0.031 1.071-0.818-0.001-1.637-0.013-2.454 0.018-0.052 0.84-0.032 1.694-0.037 2.536-0.008 1.26-0.132 2.651 0.157 3.878 0.044 0.114 0.092 0.221 0.151 0.327 0.255 0.463 0.412 0.414 0.865 0.563 0.155 0.051 0.244 0.114 0.311 0.257-0.006 0.122-0.025 0.168-0.097 0.266-0.040 0.025-0.056 0.040-0.109 0.050-0.164 0.031-4.109 0.014-4.332-0.023-0.153-0.026-0.261-0.060-0.358-0.19 0.064-0.372 0.478-0.346 0.727-0.587 0.286-0.276 0.429-0.646 0.508-1.028 0.173-0.832 0.106-1.774 0.103-2.624l-0.016-3.438-1.613-0.006c-0.033-0.355-0.035-0.714-0.044-1.070l1.607-0.001c-0.079-0.24-0.157-0.49-0.192-0.741-0.102-0.742 0.070-1.497 0.526-2.098 0.607-0.8 1.583-1.208 2.554-1.334z"></path>
      <path d="M27.731 1.125c0.65-0.055 1.274-0.007 1.857 0.312 0.466 0.255 0.864 0.676 1.007 1.197 0.089 0.323 0.098 0.732-0.084 1.026-0.129 0.208-0.345 0.33-0.582 0.375-0.216 0.040-0.502 0.040-0.682-0.105-0.341-0.274-0.113-0.801-0.189-1.164-0.046-0.219-0.222-0.404-0.413-0.509-0.301-0.165-0.735-0.185-1.061-0.087-0.27 0.081-0.475 0.258-0.599 0.512-0.36 0.735-0.087 1.86 0.16 2.591 0.81 0.048 1.638 0.011 2.451 0.015 0.020 0.362 0.002 0.718-0.020 1.080-0.825-0.002-1.65 0.001-2.475 0.009-0.038 1.032-0.053 2.064-0.046 3.096-0.003 1.063-0.109 2.258 0.203 3.284 0.343 0.751 1.054 0.877 1.222 1.279-0.026 0.073-0.015 0.086-0.088 0.129-0.26 0.155-4.211 0.125-4.564 0.041-0.014-0.048-0.032-0.103-0.033-0.153-0.011-0.313 0.483-0.445 0.673-0.632 0.264-0.261 0.395-0.744 0.456-1.104 0.138-0.809 0.094-1.7 0.093-2.519l-0.007-3.423-1.609-0.007c-0.024-0.357-0.024-0.712-0.023-1.070 0.513 0.006 1.027 0.005 1.54-0.002-0.079-0.261-0.163-0.524-0.204-0.795-0.11-0.737 0.050-1.464 0.501-2.063 0.605-0.804 1.547-1.177 2.515-1.313z"></path>
    </symbol>
    <symbol id="icon-chevron" viewBox="0 0 32 32">
      <path d="M13.728 10.28 19.495 16l-5.767 5.72 1.877 1.893L23.281 16l-7.676-7.613-1.877 1.893z"/>
      <path d="M8.939 8.387 7.062 10.28 12.829 16l-5.767 5.72 1.877 1.893L16.615 16 8.939 8.387z"/>
    </symbol>
    <symbol id="icon-envelope" viewBox="0 0 32 32">
      <path d="M26.667 5.333H5.334A2.67 2.67 0 0 0 2.667 8v16a2.67 2.67 0 0 0 2.667 2.667h21.333A2.67 2.67 0 0 0 29.334 24V8a2.67 2.67 0 0 0-2.667-2.667zm0 2.667v.681L16 16.978 5.333 8.682v-.683h21.333zM5.333 24V12.059l9.848 7.66a1.327 1.327 0 0 0 1.638 0l9.848-7.66L26.67 24H5.334z"/>
    </symbol>
    <symbol id="icon-facebook" viewBox="0 0 32 32">
      <path d="M29.333 16.405C29.333 8.996 23.364 2.99 16 2.99S2.667 8.996 2.667 16.405c0 6.696 4.876 12.245 11.25 13.252v-9.374h-3.385v-3.878h3.385V13.45c0-3.362 1.991-5.219 5.036-5.219 1.459 0 2.985.262 2.985.262v3.301h-1.681c-1.656 0-2.173 1.034-2.173 2.095v2.516h3.698l-.591 3.878h-3.107v9.374c6.374-1.006 11.25-6.556 11.25-13.252z"/>
    </symbol>
    <symbol id="icon-instagram" viewBox="0 0 32 32">
      <path d="M15.998 6.161c3.206 0 3.585.014 4.846.071 1.172.052 1.804.248 2.226.412.558.216.961.478 1.378.895.422.422.679.82.9 1.378.164.422.361 1.059.412 2.226.056 1.266.071 1.645.071 4.847s-.014 3.585-.071 4.847c-.052 1.172-.248 1.804-.412 2.227a3.702 3.702 0 0 1-.895 1.377c-.422.422-.82.679-1.378.9-.422.164-1.06.361-2.226.412-1.266.056-1.645.071-4.847.071s-3.585-.014-4.847-.071c-1.172-.052-1.804-.248-2.226-.412a3.714 3.714 0 0 1-1.378-.895 3.767 3.767 0 0 1-.9-1.378c-.164-.422-.361-1.06-.412-2.226-.056-1.266-.071-1.645-.071-4.847s.014-3.585.071-4.847c.052-1.172.248-1.804.412-2.226.216-.558.478-.961.895-1.378.422-.422.82-.679 1.378-.9.422-.164 1.059-.361 2.226-.412 1.261-.056 1.641-.071 4.847-.071h.001zm0-2.16c-3.258 0-3.665.014-4.945.071-1.275.056-2.151.262-2.91.558a5.847 5.847 0 0 0-2.127 1.387A5.883 5.883 0 0 0 4.629 8.14c-.295.764-.502 1.636-.558 2.91C4.015 12.335 4 12.742 4 15.999s.014 3.665.071 4.945c.056 1.275.262 2.151.558 2.91a5.86 5.86 0 0 0 1.387 2.127 5.876 5.876 0 0 0 2.123 1.383c.764.295 1.636.502 2.91.558 1.279.056 1.687.071 4.945.071s3.666-.014 4.945-.071c1.275-.056 2.151-.262 2.91-.558.787-.305 1.458-.717 2.123-1.383s1.078-1.336 1.383-2.123c.295-.764.502-1.635.558-2.91.056-1.279.071-1.687.071-4.945s-.014-3.665-.071-4.945c-.056-1.275-.262-2.151-.558-2.91a5.622 5.622 0 0 0-1.373-2.133 5.876 5.876 0 0 0-2.123-1.383c-.764-.295-1.635-.502-2.91-.558-1.284-.061-1.692-.075-4.949-.075L15.999 4z"/>
      <path d="M15.998 9.836a6.164 6.164 0 1 0 6.163 6.163 6.164 6.164 0 0 0-6.163-6.163zm0 10.161a3.998 3.998 0 1 1 0-7.996 3.998 3.998 0 0 1 0 7.996zM23.843 9.592a1.439 1.439 0 1 1-2.877 0 1.439 1.439 0 0 1 2.877 0z"/>
    </symbol>
    <symbol id="icon-map" viewBox="0 0 32 32">
      <path d="M16 18.667c2.941 0 5.333-2.392 5.333-5.333S18.941 8.001 16 8.001c-2.941 0-5.333 2.392-5.333 5.333s2.392 5.333 5.333 5.333zm0-8c1.471 0 2.667 1.196 2.667 2.667S17.471 16.001 16 16.001c-1.471 0-2.667-1.196-2.667-2.667s1.196-2.667 2.667-2.667z"/>
      <path d="M15.227 29.085a1.332 1.332 0 0 0 1.546 0c.405-.287 9.932-7.165 9.893-15.752 0-5.881-4.785-10.667-10.667-10.667S5.332 7.451 5.332 13.326c-.039 8.593 9.488 15.472 9.893 15.759zM16 5.333c4.412 0 8 3.588 8 8.007.028 5.917-5.851 11.231-8 12.973-2.148-1.744-8.028-7.059-8-12.98 0-4.412 3.588-8 8-8z"/>
    </symbol>
    <symbol id="icon-map-pin" viewBox="0 0 32 32">
      <path d="M16 22.667 17.333 20v-6.856c2.295-.596 4-2.667 4-5.144 0-2.941-2.392-5.333-5.333-5.333S10.667 5.059 10.667 8c0 2.477 1.705 4.548 4 5.144V20L16 22.667zM13.333 8c0-1.471 1.196-2.667 2.667-2.667S18.667 6.529 18.667 8c0 1.471-1.196 2.667-2.667 2.667S13.333 9.471 13.333 8z"/>
      <path d="m21.689 14.084-.711 2.571c3.455.955 5.688 2.791 5.688 4.679 0 2.523-4.38 5.333-10.667 5.333S5.332 23.856 5.332 21.334c0-1.888 2.233-3.724 5.689-4.68l-.711-2.571c-4.716 1.304-7.645 4.081-7.645 7.251 0 4.485 5.857 8 13.333 8s13.333-3.515 13.333-8c0-3.169-2.929-5.947-7.644-7.249z"/>
    </symbol>
    <symbol id="icon-menu" viewBox="0 0 32 32">
      <path d="M5.333 8h21.333v2.667H5.333V8zm0 6.667h21.333v2.667H5.333v-2.667zm0 6.666h21.333V24H5.333v-2.667z"/>
    </symbol>
    <symbol id="icon-phone" viewBox="0 0 32 32">
      <path d="M23.61 16.391a1.338 1.338 0 0 0-.942-.391 1.334 1.334 0 0 0-.942.391l-2.125 2.125c-.985-.293-2.824-.96-3.989-2.125s-1.832-3.004-2.125-3.989l2.125-2.125a1.338 1.338 0 0 0 .391-.942 1.334 1.334 0 0 0-.391-.942L10.279 3.06a1.338 1.338 0 0 0-.942-.391 1.334 1.334 0 0 0-.942.391L4.779 6.676a2.663 2.663 0 0 0-.781 1.913c.031 1.899.533 8.493 5.731 13.691s11.792 5.699 13.692 5.731h.037c.704 0 1.369-.277 1.873-.781l3.616-3.616a1.338 1.338 0 0 0 .391-.942 1.33 1.33 0 0 0-.391-.942l-5.333-5.335zm-.17 8.949c-1.664-.028-7.357-.475-11.831-4.949C7.121 15.903 6.686 10.19 6.66 8.559l2.673-2.673 3.448 3.448-1.724 1.724a1.33 1.33 0 0 0-.362 1.216c.032.153.815 3.789 3.028 6.003s5.849 2.996 6.003 3.028a1.317 1.317 0 0 0 1.216-.361l1.725-1.724 3.448 3.448-2.675 2.673z"/>
    </symbol>
    <symbol id="icon-close" viewBox="0 0 32 32">
      <path d="m21.589 8.459-5.657 5.656-5.656-5.656-1.885 1.885L14.047 16l-5.656 5.656 1.885 1.885 5.656-5.656 5.657 5.656 1.885-1.885L17.818 16l5.656-5.656-1.885-1.885z"/>
    </symbol>
    <symbol id="icon-twitter" viewBox="0 0 32 32">
      <path d="M22.901 5.657h3.68l-8.04 9.037L28 26.991h-7.406l-5.801-7.458-6.637 7.458H4.474l8.6-9.666L4 5.657h7.594l5.243 6.817 6.064-6.817zM21.61 24.824h2.039L10.486 7.709H8.298L21.61 24.824z"/>
    </symbol>
    <symbol id="icon-star-outline" viewBox="0 0 32 32">
      <path stroke-width="1.684" d="M16.053 1.359c.29-.688 1.289-.688 1.579 0l3.416 8.115a2.537 2.537 0 0 0 2.14 1.539l8.868.702a.828.828 0 0 1 .49 1.457l-6.758 5.719a2.506 2.506 0 0 0-.821 2.502l2.066 8.549c.167.694-.609 1.303-1.28.898h-.002l-7.59-4.581a2.555 2.555 0 0 0-2.638 0L7.931 30.84c-.671.405-1.447-.204-1.28-.898l2.066-8.549a2.506 2.506 0 0 0-.821-2.502l-6.758-5.719a.827.827 0 0 1 .49-1.457l8.868-.702a2.54 2.54 0 0 0 2.14-1.539l3.416-8.115z"/>
    </symbol>
    <symbol id="icon-star-filled" viewBox="0 0 32 32">
      <path d="M15.277 1.031c.579-1.375 2.551-1.375 3.13 0l3.417 8.116c.244.58.796.976 1.43 1.026l8.869.702c1.503.119 2.112 1.972.967 2.941l-6.757 5.718a1.66 1.66 0 0 0-.546 1.66l2.064 8.55c.35 1.449-1.245 2.594-2.532 1.817l-7.593-4.582a1.714 1.714 0 0 0-1.767 0l-7.593 4.582c-1.287.776-2.882-.369-2.532-1.817l2.064-8.55a1.662 1.662 0 0 0-.546-1.66L.595 13.816c-1.145-.969-.536-2.822.967-2.941l8.869-.702a1.692 1.692 0 0 0 1.429-1.026l3.417-8.116z"/>
    </symbol>
    <symbol id="icon-chevron-right" viewBox="0 0 31 32">
      <path d="M12.425 22.032l7.305-7.305-7.305-7.305-1.81 1.81 5.495 5.495-5.495 5.495 1.81 1.81z"></path>
    </symbol>
  </defs>
</svg>