<svg xmlns="http://www.w3.org/2000/svg" width="84" height="36" fill="none"><g clip-path="url(#a)"><g fill="#0B0803" clip-path="url(#b)"><path d="M35.839 9.895a5.653 5.653 0 1 0-11.253 1.1 5.653 5.653 0 0 0 11.253-1.1Zm-4.215-3.77c.07 0 .121.014.185.031l.014.004c.025.126 0 .184-.066.292-.115.187-.244.367-.372.547-.227.317-.453.635-.609.996-.336.784-.258 1.698-.179 2.622.07.809.14 1.625-.067 2.367-.25.893-.875 1.477-1.659 1.912a.58.58 0 0 1-.137 0c-.01 0-.02 0-.029-.002h-.017l-.008-.015c-.045-.085-.047-.09-.015-.187.042-.125.126-.253.204-.374.03-.046.06-.091.086-.135.272-.453.539-.943.622-1.473.105-.661.05-1.342-.006-2.022-.07-.863-.141-1.727.115-2.551.315-1.013 1.051-1.54 1.938-2.012ZM49.15 26.32a5.51 5.51 0 1 0-10.946 1.278A5.51 5.51 0 0 0 49.15 26.32Zm-6.102-3.568c.731-.054 1.415.124 2.005.562.954.71 1.441 1.883 1.603 3.03.17 1.213.153 2.895-.636 3.91-.43.553-.975.778-1.65.86a2.994 2.994 0 0 1-2.025-.542c-.928-.67-1.404-1.77-1.577-2.872-.197-1.256-.19-3.013.624-4.073.433-.563.973-.787 1.656-.875ZM17.756.276c.98-.129 2.09-.028 3.044.212.58.147 1.16.346 1.752.43.342.047.7.043 1.044.05.055.954.24 3.243.13 4.084-.177.034-.312.024-.488 0-.181-.21-.266-.678-.375-.949a3.923 3.923 0 0 0-2.176-2.165c-1.24-.508-2.72-.443-3.94.085-1.283.554-2.328 1.663-2.838 2.962-.789 2.012-.783 4.593.102 6.573.614 1.372 1.705 2.58 3.132 3.115 1.363.512 2.844.36 4.15-.238.583-.297 1.122-.74 1.468-1.3.197-.317.34-.92.652-1.124l.087.034c.334.422.459 1.744.568 2.312-1.258 1.109-2.776 1.844-4.444 2.064-2.184.287-4.463-.154-6.227-1.516-1.607-1.24-2.582-3.187-2.824-5.183-.28-2.319.232-4.66 1.7-6.505C13.626 1.516 15.616.52 17.756.276ZM58.765 5.784c-.585-.145-1.292-.224-1.892-.15-1.398.138-2.594.677-3.503 1.774a5.999 5.999 0 0 0-1.33 4.387c.14 1.348.76 2.688 1.834 3.54 1.13.896 2.725 1.149 4.127.983 1.244-.147 2.347-.685 3.118-1.69.353-.458.61-.977.812-1.517l-.074-.072c-.12-.118-.243-.239-.403-.287l-.037.016a.186.186 0 0 0-.109.09c-.666.98-1.428 1.628-2.62 1.851-.928.174-1.85.014-2.63-.533a4.078 4.078 0 0 1-1.395-1.775c1.425-.845 2.973-1.7 4.612-2.035.324-.067.655-.104.985-.141.346-.04.692-.078 1.028-.15.225-.05.387-.095.463-.334.192-.6-.11-1.578-.413-2.094-.552-.945-1.521-1.601-2.573-1.863Zm-1.45.953c.267.002.552.02.809.092.433.12.826.376 1.038.783.147.281.261.732.146 1.04-.097.258-.306.434-.537.57-.288.17-.634.28-.967.386a15.607 15.607 0 0 0-2.04.796c-.127.056-.287.157-.458.265-.32.202-.677.428-.919.424-.13-.108-.162-.198-.176-.36-.09-1.078.344-2.303 1.041-3.118.51-.596 1.312-.817 2.064-.878ZM69.24 5.681a6.368 6.368 0 0 0-1.25-.047c-1.419.116-2.619.634-3.547 1.738a5.977 5.977 0 0 0-1.363 4.392c.125 1.315.74 2.659 1.774 3.503 1.115.909 2.778 1.22 4.18 1.06 1.25-.14 2.371-.727 3.15-1.718.36-.46.64-.976.832-1.527a4.184 4.184 0 0 1-.076-.068c-.13-.119-.283-.258-.445-.271-.668 1.006-1.468 1.714-2.68 1.958-.914.185-1.8.05-2.584-.47-.673-.447-1.163-1.097-1.512-1.818 1.54-1.048 3.435-1.85 5.266-2.189.227-.042.458-.06.688-.078.191-.014.382-.03.57-.058.247-.037.496-.093.551-.374.155-.792-.157-1.746-.625-2.383-.706-.961-1.763-1.488-2.928-1.65Zm-1.352 1.095c.477-.038.942-.061 1.402.107.442.161.797.48.989.91.127.285.182.603.062.898a1.021 1.021 0 0 1-.338.425c-.347.254-1.204.553-1.95.813-.367.128-.707.247-.945.346-.383.17-.753.378-1.121.584-.204.115-.409.23-.615.338-.173-1.055-.064-2.131.51-3.056.475-.764 1.144-1.168 2.006-1.365ZM32.52 18.342c1.13-.006 4.303-.147 5.159.079.071.098.065.1.056.222-.198.334-.62.467-.913.706-.17.138-.322.334-.373.55-.189.797-.114 1.719-.115 2.538l-.023 3.458c-.005.825.02 1.668-.076 2.488-.139 1.173-.657 2.264-1.605 2.994-1.181.911-2.83 1.114-4.275.918-1.265-.171-2.5-.719-3.286-1.757-.713-.942-.894-2.042-.743-3.193.04-.203.091-.4.164-.594.27-.718.796-1.307 1.506-1.612.75-.322 1.696-.345 2.45-.02.366.157.598.429.732.804.083.23.11.426.005.65-.304.287-.988-.098-1.413.02-.392.11-.692.385-.88.741-.325.619-.333 1.426-.1 2.077.208.58.678 1.047 1.232 1.304.658.304 1.583.38 2.27.124.533-.198.924-.621 1.139-1.141.185-.448.272-.963.315-1.444.098-1.083.22-7.624-.018-8.332-.252-.746-1.11-.768-1.307-1.222 0-.11.003-.186.056-.282l.043-.076ZM55.857 30.46c.482-1.192.898-2.42 1.342-3.628.346-.94.773-1.913.986-2.892.045-.208.065-.415.006-.623-.178-.635-.998-.584-1.183-1.075.026-.108.01-.155.114-.22.19-.122 3.536-.135 3.947-.083.136.018.233.048.323.158.01.236-.048.343-.26.464-.34.192-.773.29-1.029.606-.401.498-1.915 4.759-2.288 5.727l-1.248 3.238c-.314.813-.608 1.697-1.076 2.436-.283.448-.664.881-1.126 1.148-.675.387-1.53.459-2.275.249-.58-.163-1.11-.522-1.387-1.068-.22-.432-.273-1.006-.112-1.466.12-.343.398-.627.729-.775.214-.095.565-.178.786-.058.527.287.184 1.234.386 1.74.069.169.168.289.342.358.282.114.771-.041 1.025-.165.86-.42 1.22-1.77 1.506-2.604-.36.007-.778.051-1.133-.011a.548.548 0 0 1-.174-.053c-.118-.068-.193-.192-.254-.311-.28-.547-.47-1.182-.69-1.758l-1.364-3.59c-.268-.705-.512-1.44-.841-2.119-.246-.505-.574-1.022-1.08-1.302-.25-.138-.58-.136-.75-.387-.029-.172.002-.276.055-.44.904-.036 4.54-.13 5.21.055a.722.722 0 0 1-.008.43c-.08.198-.464.26-.64.33-.191.077-.356.192-.43.393-.081.22.027.576.09.8.277.981.724 1.952 1.092 2.906.46 1.192.874 2.43 1.41 3.59ZM49.456 1.166c.803-.042 1.565.06 2.266.481.512.307.946.768 1.075 1.366.07.324.049.667-.14.949-.205.305-.618.544-.982.59-.218.027-.475-.003-.65-.145-.406-.328-.217-.911-.294-1.36a.826.826 0 0 0-.376-.576c-.317-.198-.81-.264-1.17-.164-.313.087-.539.308-.683.594-.46.908-.206 2.094.078 3.012.964.024 1.931.004 2.895.003.002.41-.005.811-.036 1.22-.93-.002-1.863-.016-2.793.02-.06.956-.036 1.927-.042 2.886-.009 1.435-.15 3.018.179 4.414.05.13.105.251.172.373.29.528.468.471.984.641.176.058.278.13.355.293a.45.45 0 0 1-.11.303c-.046.03-.065.046-.125.057-.187.036-4.677.016-4.931-.026-.175-.03-.298-.068-.407-.216.072-.424.544-.394.827-.668.325-.314.489-.735.579-1.17.197-.947.12-2.02.117-2.986l-.018-3.914-1.837-.007c-.037-.404-.04-.812-.05-1.218l1.828-.001a4.89 4.89 0 0 1-.218-.844c-.117-.845.08-1.704.6-2.389.69-.91 1.8-1.375 2.907-1.518Z"/><path d="M41.854 1.167c.74-.062 1.451-.008 2.115.355.53.291.984.77 1.146 1.363.101.368.112.834-.096 1.168-.147.238-.392.376-.662.427-.246.046-.571.045-.777-.12-.388-.311-.128-.911-.215-1.324-.052-.249-.253-.46-.47-.58-.344-.187-.838-.21-1.209-.099a1.09 1.09 0 0 0-.682.583c-.41.836-.099 2.117.182 2.95.923.054 1.865.012 2.79.016.024.413.003.817-.022 1.23-.939-.003-1.879 0-2.818.01a80.115 80.115 0 0 0-.052 3.524c-.003 1.21-.124 2.57.231 3.738.39.855 1.2 1 1.392 1.456-.03.083-.017.098-.1.146-.296.177-4.793.143-5.196.047-.015-.054-.036-.117-.038-.174-.012-.357.55-.506.767-.72.3-.296.449-.847.519-1.256.157-.92.107-1.935.106-2.867l-.008-3.897-1.832-.008a16.779 16.779 0 0 1-.025-1.218 72.54 72.54 0 0 0 1.753-.002c-.09-.297-.186-.596-.232-.905-.125-.838.057-1.666.57-2.348.689-.916 1.76-1.34 2.863-1.495Z"/></g></g><defs><clipPath id="a"><path fill="#fff" d="M0 0h84v36H0z"/></clipPath><clipPath id="b"><path fill="#fff" d="M10.5.22h62.516v35.86H10.5z"/></clipPath></defs></svg>