<svg aria-hidden="true" style="position: absolute; width: 0; height: 0; overflow: hidden;" version="1.1" xmlns="http://www.w3.org/2000/svg" xmlns:xlink="http://www.w3.org/1999/xlink">
<defs>
<symbol id="icon-map-pin" viewBox="0 0 32 32">
<path d="M16 22.667l1.333-2.667v-6.856c2.295-0.596 4-2.667 4-5.144 0-2.941-2.392-5.333-5.333-5.333s-5.333 2.392-5.333 5.333c0 2.477 1.705 4.548 4 5.144v6.856l1.333 2.667zM13.333 8c0-1.471 1.196-2.667 2.667-2.667s2.667 1.196 2.667 2.667c0 1.471-1.196 2.667-2.667 2.667s-2.667-1.196-2.667-2.667z"></path>
<path d="M21.689 14.084l-0.711 2.571c3.455 0.955 5.688 2.791 5.688 4.679 0 2.523-4.38 5.333-10.667 5.333s-10.667-2.811-10.667-5.333c0-1.888 2.233-3.724 5.689-4.68l-0.711-2.571c-4.716 1.304-7.645 4.081-7.645 7.251 0 4.485 5.857 8 13.333 8s13.333-3.515 13.333-8c0-3.169-2.929-5.947-7.644-7.249z"></path>
</symbol>
</defs>
</svg>
